# xmcd
#
# Track frame offsets: 
#        150
#        16160
#        18731
#        25067
#        33919
#        50125
#        57553
#        65622
#        84219
#        105900
#        120914
#        141580
#        158925
#        176280
#        198395
#
# Disc length: 2936 seconds
#
# Revision: 2
# Processed by: cddbd v1.5.2PL0 Copyright (c) Steve Scherf et al.
# Submitted via: ExactAudioCopyFreeDBPlugin 1.0
#
DISCID=c10b760f
DTITLE=Memphis Slim - The Blue Memphis Suite [2006 reissue]
DYEAR=1971
DGENRE=Blues
TTITLE0=Born in Memphis, Tennessee
TTITLE1=Chicago
TTITLE2=Me and My Piano
TTITLE3=HandyMan
TTITLE4=Feel Like Screaming and Crying
TTITLE5=Riding on the Blues Train
TTITLE6=Boogin' and Bluesin'
TTITLE7=Wind Gonna Rise
TTITLE8=Youth Wants To Know
TTITLE9=Boogie Woogie 1-9-7-0
TTITLE10=Otis Spann and Earl Hooker
TTITLE11=Chicago Seven
TTITLE12=Mason-Dixon Line
TTITLE13=Mother Earth (bonus outtake)
TTITLE14=I've Got Soul (bonus outtake)
EXTD=
EXTT0=
EXTT1=
EXTT2=
EXTT3=
EXTT4=
EXTT5=
EXTT6=
EXTT7=
EXTT8=
EXTT9=
EXTT10=
EXTT11=
EXTT12=
EXTT13=
EXTT14=
PLAYORDER=
